<?xml version="1.0" encoding="UTF-8"?>
<svg version="1.1" xmlns="http://www.w3.org/2000/svg" width="343" height="125">
<path d="M0 0 C2.21463013 -0.36076355 2.21463013 -0.36076355 5.00048828 -0.34057617 C6.56188034 -0.34023628 6.56188034 -0.34023628 8.15481567 -0.33988953 C9.28192963 -0.32440567 10.40904358 -0.30892181 11.5703125 -0.29296875 C13.29735916 -0.28660149 13.29735916 -0.28660149 15.05929565 -0.28010559 C18.74809855 -0.26327052 22.43636136 -0.22560874 26.125 -0.1875 C28.62108588 -0.17245944 31.11718029 -0.15876995 33.61328125 -0.14648438 C39.74237275 -0.1133512 45.8711478 -0.06310389 52 0 C51.45897156 5.51818401 50.40184675 10.43522408 48.5234375 15.6640625 C48.15392471 16.72438942 48.15392471 16.72438942 47.77694702 17.80613708 C47.25272278 19.30838472 46.7250715 20.8094403 46.19421387 22.30935669 C44.81348855 26.21220486 43.45914192 30.12421009 42.1015625 34.03515625 C41.83327637 34.80590988 41.56499023 35.57666351 41.28857422 36.37077332 C39.01850295 42.90598137 36.84464467 49.46883441 34.75 56.0625 C34.46302246 56.95855957 34.17604492 57.85461914 33.88037109 58.77783203 C32.50593968 62.80976904 32.50593968 62.80976904 32 67 C33.65 67.33 35.3 67.66 37 68 C37.21398437 66.86820312 37.42796875 65.73640625 37.6484375 64.5703125 C39.37160133 56.83569095 42.09207142 49.37316039 44.625 41.875 C45.12668773 40.37643114 45.62799177 38.87773376 46.12890625 37.37890625 C50.32238214 24.88384195 54.66955745 12.45002232 59 0 C76.49 0 93.98 0 112 0 C110.87497874 7.87514885 110.87497874 7.87514885 109.67163086 11.47958374 C109.40244843 12.29552002 109.13326599 13.1114563 108.85592651 13.95211792 C108.41484055 15.2585173 108.41484055 15.2585173 107.96484375 16.59130859 C107.49886276 17.99494659 107.49886276 17.99494659 107.02346802 19.42694092 C106.00065565 22.50275567 104.96926562 25.57561564 103.9375 28.6484375 C103.22343917 30.7882349 102.50982245 32.92818055 101.79663086 35.06826782 C100.30400605 39.5430195 98.80736796 44.01640126 97.30761719 48.48876953 C95.38124789 54.23378781 93.46285535 59.98142988 91.54716492 65.73001671 C90.07580079 70.14356667 88.60131834 74.55606945 87.12576294 78.96821976 C86.4169181 81.08837354 85.70880848 83.20877327 85.00143433 85.32941818 C84.01569582 88.28232067 83.02602604 91.23387465 82.03515625 94.18505859 C81.74109894 95.0681369 81.44704163 95.95121521 81.14407349 96.86105347 C79.11447964 102.88552036 79.11447964 102.88552036 78 104 C75.87222469 104.17216794 73.73884579 104.27558895 71.60546875 104.3515625 C70.94984451 104.37512314 70.29422028 104.39868378 69.61872864 104.42295837 C67.47514286 104.49678811 65.33142149 104.56171421 63.1875 104.625 C62.46457764 104.64779022 61.74165527 104.67058044 60.99682617 104.69406128 C49.28326021 105.05395984 37.69055928 104.91332494 26 104 C25 102 25 102 25.51318359 99.87695312 C25.80531738 99.02037109 26.09745117 98.16378906 26.3984375 97.28125 C26.87023437 95.88326172 26.87023437 95.88326172 27.3515625 94.45703125 C27.68929687 93.48121094 28.02703125 92.50539063 28.375 91.5 C28.705 90.52417969 29.035 89.54835938 29.375 88.54296875 C31.81686282 81.36627435 31.81686282 81.36627435 33 79 C31.68 79 30.36 79 29 79 C29.33 77.35 29.66 75.7 30 74 C29.34 74 28.68 74 28 74 C27.74347656 75.2684375 27.48695313 76.536875 27.22265625 77.84375 C26.02840978 83.21417644 24.28832167 88.32533158 22.4375 93.5 C22.12103516 94.40492187 21.80457031 95.30984375 21.47851562 96.2421875 C19.13757622 102.86242378 19.13757622 102.86242378 18 104 C16.37325222 104.09340434 14.74245949 104.11745171 13.11303711 104.11352539 C12.07203354 104.11344986 11.03102997 104.11337433 9.95848083 104.11329651 C8.8262056 104.10813522 7.69393036 104.10297394 6.52734375 104.09765625 C5.37456436 104.0962413 4.22178497 104.09482635 3.03407288 104.09336853 C-0.66481064 104.08775005 -4.36363464 104.07519442 -8.0625 104.0625 C-10.56315017 104.05748738 -13.06380129 104.05292406 -15.56445312 104.04882812 C-21.70965588 104.03777462 -27.85482369 104.02101852 -34 104 C-33.42867053 97.85000687 -32.04955682 92.44082298 -30.07250977 86.60229492 C-29.77321564 85.69886353 -29.47392151 84.79543213 -29.16555786 83.86462402 C-28.18150988 80.90073844 -27.18673708 77.94058252 -26.19140625 74.98046875 C-25.5020733 72.91418188 -24.81327411 70.84771688 -24.12498474 68.78108215 C-22.68460809 64.46160214 -21.23914806 60.1438687 -19.78979492 55.82739258 C-17.93095907 50.29066477 -16.08280219 44.75044517 -14.23814487 39.20897961 C-12.81844691 34.94681981 -11.39420326 30.68619055 -9.96845818 26.42605019 C-9.28511534 24.38305726 -8.60294718 22.33967105 -7.92196846 20.2958889 C-6.97140227 17.44598409 -6.01499513 14.59810835 -5.05688477 11.75073242 C-4.77577347 10.90446793 -4.49466217 10.05820343 -4.20503235 9.18629456 C-3.81181793 8.02367599 -3.81181793 8.02367599 -3.41065979 6.83757019 C-3.18519753 6.16491214 -2.95973528 5.49225409 -2.72744083 4.79921246 C-2 3 -2 3 0 0 Z M32 70 C32.33 71.32 32.66 72.64 33 74 C33.66 73.67 34.32 73.34 35 73 C35 72.01 35 71.02 35 70 C34.01 70 33.02 70 32 70 Z " fill="#B39D7B" transform="translate(162,9)"/>
<path d="M0 0 C0.9215538 0.00222061 1.8431076 0.00444122 2.79258728 0.00672913 C3.83359085 0.00680466 4.87459442 0.00688019 5.94714355 0.00695801 C7.07941879 0.01211929 8.21169403 0.01728058 9.37828064 0.02259827 C10.53106003 0.02401321 11.68383942 0.02542816 12.87155151 0.02688599 C16.57043503 0.03250446 20.26925903 0.0450601 23.96812439 0.05775452 C26.46877456 0.06276714 28.96942567 0.06733045 31.47007751 0.07142639 C37.61528027 0.0824799 43.76044808 0.099236 49.90562439 0.12025452 C51.09690622 3.69410001 50.65116714 4.41206623 49.28843689 7.81166077 C48.74932678 9.21653748 48.74932678 9.21653748 48.19932556 10.64979553 C47.81365417 11.650672 47.42798279 12.65154846 47.03062439 13.68275452 C43.94199618 22.01451745 42.01307858 29.45210983 42.1190033 38.35877991 C42.15830144 43.06501283 41.44301295 46.13121577 38.90562439 50.12025452 C38.03937439 50.61525452 37.17312439 51.11025452 36.28062439 51.62025452 C33.55773572 52.959345 33.55773572 52.959345 33.09312439 56.30775452 C33.00031189 57.69994202 33.00031189 57.69994202 32.90562439 59.12025452 C32.24562439 59.12025452 31.58562439 59.12025452 30.90562439 59.12025452 C30.79396942 59.66838303 30.68231445 60.21651154 30.567276 60.78125 C29.40236811 66.28173195 27.89575547 71.55448087 26.08531189 76.87416077 C25.85142761 77.57279236 25.61754333 78.27142395 25.37657166 78.9912262 C24.51623631 81.55674451 23.64798954 84.11960434 22.78062439 86.68275452 C20.84187439 92.43712952 18.90312439 98.19150452 16.90562439 104.12025452 C-0.58437561 104.12025452 -18.07437561 104.12025452 -36.09437561 104.12025452 C-35.42907455 99.46314707 -34.95563949 96.21255855 -33.43617249 91.99305725 C-33.09912292 91.04353683 -32.76207336 90.09401642 -32.41481018 89.11572266 C-32.05125427 88.10530411 -31.68769836 87.09488556 -31.31312561 86.05384827 C-30.54478954 83.85316781 -29.77791152 81.65197787 -29.01234436 79.45033264 C-27.81490883 76.02321475 -26.60960155 72.59997578 -25.37806702 69.18495178 C-19.89356254 53.92260766 -16.75888123 40.38866359 -17.09437561 24.12025452 C-14.78437561 24.12025452 -12.47437561 24.12025452 -10.09437561 24.12025452 C-9.92421936 23.46541077 -9.75406311 22.81056702 -9.57875061 22.13587952 C-3.75816066 0.21578545 -3.75816066 0.21578545 0 0 Z " fill="#77C4C9" transform="translate(104.09437561035156,8.879745483398438)"/>
<path d="M0 0 C2.21463013 -0.36076355 2.21463013 -0.36076355 5.00048828 -0.34057617 C6.56188034 -0.34023628 6.56188034 -0.34023628 8.15481567 -0.33988953 C9.28192963 -0.32440567 10.40904358 -0.30892181 11.5703125 -0.29296875 C13.29735916 -0.28660149 13.29735916 -0.28660149 15.05929565 -0.28010559 C18.74809855 -0.26327052 22.43636136 -0.22560874 26.125 -0.1875 C28.62108588 -0.17245944 31.11718029 -0.15876995 33.61328125 -0.14648438 C39.74237275 -0.1133512 45.8711478 -0.06310389 52 0 C51.46148763 5.47140682 50.43118961 10.34188704 48.55859375 15.5234375 C48.19338623 16.56695122 48.19338623 16.56695122 47.82080078 17.63154602 C47.30115899 19.11523246 46.77820306 20.59776177 46.25216675 22.07919312 C44.86884761 25.97751548 43.51164558 29.88486489 42.15625 33.79296875 C41.74952309 34.96443199 41.74952309 34.96443199 41.33457947 36.15956116 C38.51692252 44.32034317 35.97018915 52.55512616 33.49975586 60.82763672 C32.08743448 65.54374628 30.61270467 70.181709 28.8371582 74.77319336 C26.44306929 81.14137213 24.33450499 87.62123138 22.140625 94.06054688 C21.75132812 95.19427734 21.36203125 96.32800781 20.9609375 97.49609375 C20.60821777 98.52919678 20.25549805 99.5622998 19.89208984 100.62670898 C19 103 19 103 18 104 C16.37325222 104.09340434 14.74245949 104.11745171 13.11303711 104.11352539 C12.07203354 104.11344986 11.03102997 104.11337433 9.95848083 104.11329651 C8.8262056 104.10813522 7.69393036 104.10297394 6.52734375 104.09765625 C5.37456436 104.0962413 4.22178497 104.09482635 3.03407288 104.09336853 C-0.66481064 104.08775005 -4.36363464 104.07519442 -8.0625 104.0625 C-10.56315017 104.05748738 -13.06380129 104.05292406 -15.56445312 104.04882812 C-21.70965588 104.03777462 -27.85482369 104.02101852 -34 104 C-33.42867053 97.85000687 -32.04955682 92.44082298 -30.07250977 86.60229492 C-29.77321564 85.69886353 -29.47392151 84.79543213 -29.16555786 83.86462402 C-28.18150988 80.90073844 -27.18673708 77.94058252 -26.19140625 74.98046875 C-25.5020733 72.91418188 -24.81327411 70.84771688 -24.12498474 68.78108215 C-22.68460809 64.46160214 -21.23914806 60.1438687 -19.78979492 55.82739258 C-17.93095907 50.29066477 -16.08280219 44.75044517 -14.23814487 39.20897961 C-12.81844691 34.94681981 -11.39420326 30.68619055 -9.96845818 26.42605019 C-9.28511534 24.38305726 -8.60294718 22.33967105 -7.92196846 20.2958889 C-6.97140227 17.44598409 -6.01499513 14.59810835 -5.05688477 11.75073242 C-4.77577347 10.90446793 -4.49466217 10.05820343 -4.20503235 9.18629456 C-3.81181793 8.02367599 -3.81181793 8.02367599 -3.41065979 6.83757019 C-3.18519753 6.16491214 -2.95973528 5.49225409 -2.72744083 4.79921246 C-2 3 -2 3 0 0 Z " fill="#879AEF" transform="translate(162,9)"/>
<path d="M0 0 C17.49 0 34.98 0 53 0 C51.875 7.875 51.875 7.875 50.50952148 11.92553711 C50.20928574 12.82594223 49.90904999 13.72634735 49.59971619 14.65403748 C49.27677078 15.60222855 48.95382538 16.55041962 48.62109375 17.52734375 C48.12380516 19.01071983 48.12380516 19.01071983 47.61647034 20.52406311 C46.56246061 23.66380819 45.50011455 26.800658 44.4375 29.9375 C43.71884779 32.07338164 43.00074284 34.20944749 42.28320312 36.34570312 C40.52846621 41.5659517 38.76688723 46.78385223 37 52 C36.505 50.02 36.505 50.02 36 48 C35.01 48 34.02 48 33 48 C33 41.4 33 34.8 33 28 C33.99 28 34.98 28 36 28 C36 26.68 36 25.36 36 24 C32.37 24 28.74 24 25 24 C25 25.32 25 26.64 25 28 C25.99 28 26.98 28 28 28 C28 34.6 28 41.2 28 48 C19 50 19 50 17 49 C17.495 50.98 17.495 50.98 18 53 C16.68 53 15.36 53 14 53 C13.505 53.99 13.505 53.99 13 55 C11.68 54.67 10.36 54.34 9 54 C9 53.34 9 52.68 9 52 C10.65 52 12.3 52 14 52 C13.4946875 51.22914062 12.989375 50.45828125 12.46875 49.6640625 C11.8190625 48.66117188 11.169375 47.65828125 10.5 46.625 C9.8503125 45.62726562 9.200625 44.62953125 8.53125 43.6015625 C7 41 7 41 7 39 C7.9590625 38.566875 7.9590625 38.566875 8.9375 38.125 C11.15206079 37.17176549 11.15206079 37.17176549 12 35 C12.44082992 30.80344911 12.44082992 30.80344911 10.625 27.1875 C7.27190977 24.73716483 4.48052071 24.71925142 0.375 24.4375 C-0.81351563 24.35371094 -2.00203125 24.26992188 -3.2265625 24.18359375 C-4.59941406 24.09271484 -4.59941406 24.09271484 -6 24 C-4.6404241 28.2205965 -3.05956153 32.0681098 -1 36 C-2.65 36 -4.3 36 -6 36 C-6 41.61 -6 47.22 -6 53 C-8.475 53.495 -8.475 53.495 -11 54 C-11.495 52.515 -11.495 52.515 -12 51 C-12.66 51 -13.32 51 -14 51 C-14.268125 51.969375 -14.53625 52.93875 -14.8125 53.9375 C-15.204375 54.948125 -15.59625 55.95875 -16 57 C-17.485 57.495 -17.485 57.495 -19 58 C-16.72495533 48.98422015 -13.82563066 40.20150692 -10.86645508 31.39355469 C-10.0644141 29.00569871 -9.26719235 26.61627533 -8.47070312 24.2265625 C-7.95080336 22.6717805 -7.43063009 21.11708992 -6.91015625 19.5625 C-6.6777272 18.86632568 -6.44529816 18.17015137 -6.20582581 17.45288086 C-4.23465738 11.59399017 -2.11463391 5.81524325 0 0 Z " fill="#B29D7C" transform="translate(221,9)"/>
<path d="M0 0 C0.33 0.99 0.66 1.98 1 3 C1.66 3 2.32 3 3 3 C3 6.3 3 9.6 3 13 C5.97 13.33 8.94 13.66 12 14 C12.33 12.35 12.66 10.7 13 9 C15.875 8.8125 15.875 8.8125 19 9 C19.99 10.485 19.99 10.485 21 12 C21.99 11.01 22.98 10.02 24 9 C24.66 9.99 25.32 10.98 26 12 C26.99 12.33 27.98 12.66 29 13 C29 12.34 29 11.68 29 11 C29.99 11 30.98 11 32 11 C32 10.34 32 9.68 32 9 C31.34 9 30.68 9 30 9 C30 7.68 30 6.36 30 5 C30.639375 4.87625 31.27875 4.7525 31.9375 4.625 C32.618125 4.41875 33.29875 4.2125 34 4 C34.33 3.34 34.66 2.68 35 2 C36.20272819 4.40545638 36.10071472 5.94996953 36.0625 8.625 C36.05347656 9.44226563 36.04445312 10.25953125 36.03515625 11.1015625 C36.02355469 11.72804688 36.01195312 12.35453125 36 13 C36.99 13 37.98 13 39 13 C39 11.68 39 10.36 39 9 C42.465 8.505 42.465 8.505 46 8 C46.83796731 12.65537393 47.0161692 16.37078475 46 21 C45.34 21 44.68 21 44 21 C44.19335938 21.53238281 44.38671875 22.06476563 44.5859375 22.61328125 C45.13646921 25.78662913 44.44856566 28.08590638 43.625 31.1875 C43.34914062 32.25355469 43.07328125 33.31960937 42.7890625 34.41796875 C42 37 42 37 41 38 C39.37325222 38.09340434 37.74245949 38.11745171 36.11303711 38.11352539 C35.07203354 38.11344986 34.03102997 38.11337433 32.95848083 38.11329651 C31.8262056 38.10813522 30.69393036 38.10297394 29.52734375 38.09765625 C28.37456436 38.0962413 27.22178497 38.09482635 26.03407288 38.09336853 C22.33518936 38.08775005 18.63636536 38.07519442 14.9375 38.0625 C12.43684983 38.05748738 9.93619871 38.05292406 7.43554688 38.04882812 C1.29034412 38.03777462 -4.85482369 38.02101852 -11 38 C-10.45326622 32.57974932 -9.48062059 27.84182248 -7.71484375 22.65625 C-7.49429825 22.00168823 -7.27375275 21.34712646 -7.04652405 20.67272949 C-6.35061524 18.61266314 -5.64428242 16.55635774 -4.9375 14.5 C-4.45958784 13.09138267 -3.9823681 11.68253021 -3.50585938 10.2734375 C-2.34521866 6.84620794 -1.17521083 3.42226481 0 0 Z " fill="#879AF1" transform="translate(139,75)"/>
<path d="M0 0 C8.25 0 16.5 0 25 0 C24.896875 3.17625 24.79375 6.3525 24.6875 9.625 C24.65015747 11.1092749 24.65015747 11.1092749 24.61206055 12.62353516 C24.39908117 17.75058611 23.91841714 21.60504402 21 26 C16.54038458 28.97307695 12.22922586 28.62015709 7 28 C2.81973448 25.69658839 1.34296277 23.496263 0 19 C-0.23615235 15.72352342 -0.18815563 12.47019558 -0.125 9.1875 C-0.08375 6.155625 -0.0425 3.12375 0 0 Z " fill="#030B0D" transform="translate(122,33)"/>
<path d="M0 0 C0.33 0 0.66 0 1 0 C0.67 3.3 0.34 6.6 0 10 C2.33497831 10.94858494 4.66958147 11.881858 7.04296875 12.73046875 C7.75066406 12.98441406 8.45835937 13.23835938 9.1875 13.5 C9.86167969 13.7371875 10.53585938 13.974375 11.23046875 14.21875 C13 15 13 15 15 17 C14.625 19.125 14.625 19.125 14 21 C12.35 21.33 10.7 21.66 9 22 C8.34 20.68 7.68 19.36 7 18 C5.35 18 3.7 18 2 18 C2.92967119 21.03174102 2.92967119 21.03174102 5 24 C7.68906013 25.14563509 10.08196704 25.52163394 13 26 C13 26.66 13 27.32 13 28 C11.02 28 9.04 28 7 28 C7 30.97 7 33.94 7 37 C3.52510301 38.64092358 1.66152472 39.26259473 -2 38 C-2.66 38 -3.32 38 -4 38 C-4 38.99 -4 39.98 -4 41 C-8.34263862 41.16702456 -11.20960634 41.12999997 -15 39 C-14.84758646 32.3353715 -13.71681198 26.25744455 -11.6875 19.9375 C-11.48680908 19.28257568 -11.28611816 18.62765137 -11.0793457 17.95288086 C-9.49438128 13.26676559 -9.49438128 13.26676559 -6.87890625 11.85546875 C-6.25886719 11.57316406 -5.63882813 11.29085937 -5 11 C-4.3006486 8.81458448 -4.3006486 8.81458448 -4.25 6.375 C-4.19328125 5.55773438 -4.1365625 4.74046875 -4.078125 3.8984375 C-4.05234375 3.27195313 -4.0265625 2.64546875 -4 2 C-2.68 2 -1.36 2 0 2 C0 1.34 0 0.68 0 0 Z " fill="#879AF1" transform="translate(157,35)"/>
<path d="M0 0 C7.12932373 -0.47179348 13.09325377 -0.42635871 19 4 C22.25896511 8.88844766 21.68726103 14.29152576 21 20 C19.4282988 23.52009113 17.06821725 25.32854916 13.8125 27.375 C9.55168969 28.32184674 5.34541181 28.15187847 1 28 C0.07840421 21.78829926 -0.12177385 15.77390894 -0.0625 9.5 C-0.05798828 8.5821875 -0.05347656 7.664375 -0.04882812 6.71875 C-0.03716326 4.47909609 -0.02079614 2.23958455 0 0 Z " fill="#04090B" transform="translate(87,33)"/>
<path d="M0 0 C2.6328125 -0.46875 2.6328125 -0.46875 6 0 C8.38716457 2.19930709 10.08777295 4.80458963 11.875 7.5 C12.37257813 8.21542969 12.87015625 8.93085937 13.3828125 9.66796875 C14.60654389 11.43296595 15.80571433 13.21494668 17 15 C17.33 10.05 17.66 5.1 18 0 C19.98 0 21.96 0 24 0 C24 9.24 24 18.48 24 28 C22.02 28 20.04 28 18 28 C15.55078125 25.55078125 15.55078125 25.55078125 13.3125 22.3125 C12.19294922 20.72888672 12.19294922 20.72888672 11.05078125 19.11328125 C9.29835896 16.45293731 7.63900727 13.73167878 6 11 C5.67 16.61 5.34 22.22 5 28 C3.35 28 1.7 28 0 28 C-1.32368341 18.57130123 -0.71960516 9.44343382 0 0 Z " fill="#030303" transform="translate(50,33)"/>
<path d="M0 0 C2.06183633 -0.08150744 4.12461349 -0.1394194 6.1875 -0.1875 C7.33605469 -0.22230469 8.48460937 -0.25710937 9.66796875 -0.29296875 C13.3044035 0.02676467 15.1105914 0.81841727 18 3 C19.40457737 5.80915474 19.24895157 7.88810534 19 11 C17.6875 13.375 17.6875 13.375 16 15 C15.01 15 14.02 15 13 15 C13.5053125 15.77085938 14.010625 16.54171875 14.53125 17.3359375 C15.1809375 18.33882812 15.830625 19.34171875 16.5 20.375 C17.1496875 21.37273438 17.799375 22.37046875 18.46875 23.3984375 C20 26 20 26 20 28 C17.7265625 28.33984375 17.7265625 28.33984375 15 28 C13.0859375 25.62890625 13.0859375 25.62890625 11.375 22.5625 C9.15707828 18.15163421 9.15707828 18.15163421 5 16 C5 19.96 5 23.92 5 28 C3.35 28 1.7 28 0 28 C0 22.72 0 17.44 0 12 C1.32 11.67 2.64 11.34 4 11 C3.34 10.113125 2.68 9.22625 2 8.3125 C-0.05889462 4.90245578 -0.20705258 3.79812072 0 0 Z " fill="#100A07" transform="translate(215,33)"/>
<path d="M0 0 C0.66 0 1.32 0 2 0 C3.67482275 4.26767998 5.33845499 8.53963493 7 12.8125 C7.47695313 14.02744141 7.95390625 15.24238281 8.4453125 16.49414062 C8.89648438 17.65751953 9.34765625 18.82089844 9.8125 20.01953125 C10.23144531 21.09307861 10.65039062 22.16662598 11.08203125 23.27270508 C12 26 12 26 12 29 C10.02 29 8.04 29 6 29 C6 28.01 6 27.02 6 26 C2.7 26 -0.6 26 -4 26 C-4 26.99 -4 27.98 -4 29 C-6.31 29 -8.62 29 -11 29 C-9.59561494 25.19086684 -8.18973773 21.38228816 -6.7824707 17.57421875 C-6.30386896 16.27847228 -5.82567643 14.98257459 -5.34790039 13.68652344 C-4.66139408 11.82447308 -3.97329748 9.96300928 -3.28515625 8.1015625 C-2.87144775 6.98088379 -2.45773926 5.86020508 -2.03149414 4.70556641 C-1 2 -1 2 0 0 Z M0 15 C-0.66 16.98 -1.32 18.96 -2 21 C-0.35 21 1.3 21 3 21 C2.67 19.02 2.34 17.04 2 15 C1.34 15 0.68 15 0 15 Z " fill="#020202" transform="translate(277,32)"/>
<path d="M0 0 C2.5625 1.75 2.5625 1.75 4 4 C4 5.32 4 6.64 4 8 C2.35 8 0.7 8 -1 8 C-1 7.01 -1 6.02 -1 5 C-2.98 5.33 -4.96 5.66 -7 6 C-6.67 7.65 -6.34 9.3 -6 11 C-4.906875 11.268125 -3.81375 11.53625 -2.6875 11.8125 C2.59018659 13.51209399 2.59018659 13.51209399 4 16 C4.75 22.75 4.75 22.75 2.5 26.5 C-0.97672923 28.58603754 -4.11142728 28.90861699 -8 28 C-11 25.6875 -11 25.6875 -13 23 C-13 22.01 -13 21.02 -13 20 C-10.625 19.8125 -10.625 19.8125 -8 20 C-7.34 20.99 -6.68 21.98 -6 23 C-4.35 22.67 -2.7 22.34 -1 22 C-1.15957536 20.04882047 -1.15957536 20.04882047 -2 18 C-4.0102207 16.75525554 -4.0102207 16.75525554 -6.4375 15.9375 C-9.99865651 14.6056389 -10.79695316 14.30457026 -13 11 C-13.41467826 7.19878263 -13.52577308 4.89152827 -11.5625 1.5625 C-7.77224778 -0.7486294 -4.32567259 -0.79370139 0 0 Z " fill="#050616" transform="translate(172,33)"/>
<path d="M0 0 C4.62 0 9.24 0 14 0 C14.66964286 14.33035714 14.66964286 14.33035714 11.9375 17.4375 C8.10197111 19.47767494 6.11739929 19.24298846 2 18 C-0.45391569 14.31912647 -0.22802759 11.55644412 -0.125 7.3125 C-0.11597656 6.61060547 -0.10695313 5.90871094 -0.09765625 5.18554688 C-0.07413704 3.45688475 -0.03826713 1.72839855 0 0 Z " fill="#78BEC3" transform="translate(127,38)"/>
<path d="M0 0 C3.96 0 7.92 0 12 0 C12 1.65 12 3.3 12 5 C11.01 5 10.02 5 9 5 C9.08378906 5.79664063 9.16757812 6.59328125 9.25390625 7.4140625 C10.26537786 17.93848858 10.26537786 17.93848858 9 23 C9.99 23 10.98 23 12 23 C12 24.65 12 26.3 12 28 C8.04 28 4.08 28 0 28 C0 26.35 0 24.7 0 23 C0.99 23 1.98 23 3 23 C3 17.06 3 11.12 3 5 C2.01 5 1.02 5 0 5 C0 3.35 0 1.7 0 0 Z " fill="#030303" transform="translate(26,33)"/>
<path d="M0 0 C2.41385269 0.56796534 3.79339233 0.24944532 6.125 -0.5 C6.455 1.15 6.785 2.8 7.125 4.5 C5.805 4.83 4.485 5.16 3.125 5.5 C3.62 6.28375 4.115 7.0675 4.625 7.875 C6.125 10.5 6.125 10.5 6.125 12.5 C5.135 12.17 4.145 11.84 3.125 11.5 C2.795 10.84 2.465 10.18 2.125 9.5 C1.135 10.49 0.145 11.48 -0.875 12.5 C-1.535 12.17 -2.195 11.84 -2.875 11.5 C-2.875 10.84 -2.875 10.18 -2.875 9.5 C-3.535 9.17 -4.195 8.84 -4.875 8.5 C-5.205 9.16 -5.535 9.82 -5.875 10.5 C-6.865 10.17 -7.855 9.84 -8.875 9.5 C-9.205 10.82 -9.535 12.14 -9.875 13.5 C-12.515 13.17 -15.155 12.84 -17.875 12.5 C-17.875 8.87 -17.875 5.24 -17.875 1.5 C-15.565 1.5 -13.255 1.5 -10.875 1.5 C-10.875 2.16 -10.875 2.82 -10.875 3.5 C-7.41 3.005 -7.41 3.005 -3.875 2.5 C-3.875 1.84 -3.875 1.18 -3.875 0.5 C-1.875 -0.5 -1.875 -0.5 0 0 Z " fill="#8898EF" transform="translate(160.875,75.5)"/>
<path d="M0 0 C7 0 7 0 9.9375 2 C12.2320872 5.33758138 12.75776403 7.10183315 12.48046875 11.06640625 C11.61592935 14.54565017 9.86830829 15.98608141 7 18 C4.69 18.33 2.38 18.66 0 19 C0 12.73 0 6.46 0 0 Z " fill="#6BA3A4" transform="translate(92,38)"/>
<path d="M0 0 C1.65 0 3.3 0 5 0 C5 7.59 5 15.18 5 23 C8.63 23 12.26 23 16 23 C16 24.65 16 26.3 16 28 C10.72 28 5.44 28 0 28 C-1.33257403 9.17995444 -1.33257403 9.17995444 0 0 Z " fill="#040404" transform="translate(300,33)"/>
<path d="M0 0 C3.63 0 7.26 0 11 0 C11 1.32 11 2.64 11 4 C10.01 4 9.02 4 8 4 C8 10.6 8 17.2 8 24 C8.99 24 9.98 24 11 24 C11 25.32 11 26.64 11 28 C7.37 28 3.74 28 0 28 C0 26.68 0 25.36 0 24 C0.99 24 1.98 24 3 24 C3 17.4 3 10.8 3 4 C2.01 4 1.02 4 0 4 C0 2.68 0 1.36 0 0 Z " fill="#0C0805" transform="translate(246,33)"/>
<path d="M0 0 C5.28 0 10.56 0 16 0 C16 1.32 16 2.64 16 4 C14.35 4 12.7 4 11 4 C11 12.25 11 20.5 11 29 C9.35 28.67 7.7 28.34 6 28 C6 20.08 6 12.16 6 4 C4.02 4 2.04 4 0 4 C0 2.68 0 1.36 0 0 Z " fill="#000110" transform="translate(187,33)"/>
<path d="M0 0 C17.16 0 34.32 0 52 0 C52.495 0.99 52.495 0.99 53 2 C52.38469925 1.9969838 51.7693985 1.99396759 51.13545227 1.99085999 C44.72719691 1.96628463 38.32043286 1.99040478 31.91235352 2.04272461 C29.52143898 2.05585883 27.13042282 2.05660375 24.73950195 2.04467773 C21.30057527 2.0296793 17.86447619 2.05932727 14.42578125 2.09765625 C13.35789871 2.08340103 12.29001617 2.06914581 11.18977356 2.05445862 C5.73654752 2.02630311 5.73654752 2.02630311 1.18222046 4.61837769 C-0.40876786 6.72754116 -0.40876786 6.72754116 -2 10 C-3 7 -3 7 0 0 Z " fill="#83BCC1" transform="translate(102,9)"/>
<path d="M0 0 C17.16 0 34.32 0 52 0 C51 8 51 8 49 11 C49.33 8.03 49.66 5.06 50 2 C33.17 2 16.34 2 -1 2 C-0.67 1.34 -0.34 0.68 0 0 Z " fill="#8A9BDA" transform="translate(162,9)"/>
<path d="M0 0 C5.61 0 11.22 0 17 0 C17 6.6 17 13.2 17 20 C16.01 19.67 15.02 19.34 14 19 C12.02482204 14.16927904 12.94486933 8.0720215 13 3 C9.04 3 5.08 3 1 3 C0.67 2.01 0.34 1.02 0 0 Z " fill="#010304" transform="translate(128,34)"/>
<path d="M0 0 C17.49 0 34.98 0 53 0 C53 0.66 53 1.32 53 2 C35.61107419 2.7145468 18.37751647 3.35761847 1 2 C0.67 1.34 0.34 0.68 0 0 Z " fill="#A2917A" transform="translate(187,111)"/>
<path d="M0 0 C2.5625 1.75 2.5625 1.75 4 4 C4 5.32 4 6.64 4 8 C2.35 8 0.7 8 -1 8 C-1 7.01 -1 6.02 -1 5 C-2.98 5.33 -4.96 5.66 -7 6 C-7 7.65 -7 9.3 -7 11 C-7.66 11 -8.32 11 -9 11 C-9 9.35 -9 7.7 -9 6 C-11.51083114 7.25541557 -11.87125446 8.50063488 -13 11 C-13.47633136 4.80769231 -13.47633136 4.80769231 -11.5625 1.5625 C-7.77224778 -0.7486294 -4.32567259 -0.79370139 0 0 Z " fill="#0A0D21" transform="translate(172,33)"/>
<path d="M0 0 C1.2065625 0.0309375 1.2065625 0.0309375 2.4375 0.0625 C2.48648438 0.77277344 2.53546875 1.48304687 2.5859375 2.21484375 C2.66070312 3.13394531 2.73546875 4.05304687 2.8125 5 C2.88210937 5.91652344 2.95171875 6.83304688 3.0234375 7.77734375 C3.16007812 8.53144531 3.29671875 9.28554688 3.4375 10.0625 C4.0975 10.3925 4.7575 10.7225 5.4375 11.0625 C3.1875 13.5625 3.1875 13.5625 0.4375 16.0625 C-0.8825 16.0625 -2.2025 16.0625 -3.5625 16.0625 C-3.58935095 13.58326199 -3.60926547 11.1043116 -3.625 8.625 C-3.63756836 7.56442383 -3.63756836 7.56442383 -3.65039062 6.48242188 C-3.65903588 4.67556441 -3.61470011 2.86862397 -3.5625 1.0625 C-2.5625 0.0625 -2.5625 0.0625 0 0 Z " fill="#77C6CB" transform="translate(97.5625,38.9375)"/>
<path d="M0 0 C0.886875 0.36480469 1.77375 0.72960938 2.6875 1.10546875 C3.574375 1.46253906 4.46125 1.81960937 5.375 2.1875 C7.6875 3.29296875 7.6875 3.29296875 9.6875 5.29296875 C9.3125 7.41796875 9.3125 7.41796875 8.6875 9.29296875 C7.0375 9.62296875 5.3875 9.95296875 3.6875 10.29296875 C3.46320313 9.6484375 3.23890625 9.00390625 3.0078125 8.33984375 C1.85860544 6.04908023 1.85860544 6.04908023 -0.6953125 5.68359375 C-2.05269531 5.61398438 -2.05269531 5.61398438 -3.4375 5.54296875 C-4.34757813 5.48625 -5.25765625 5.42953125 -6.1953125 5.37109375 C-6.89398438 5.3453125 -7.59265625 5.31953125 -8.3125 5.29296875 C-7.6525 4.96296875 -6.9925 4.63296875 -6.3125 4.29296875 C-6.3125 3.63296875 -6.3125 2.97296875 -6.3125 2.29296875 C-5.6525 2.62296875 -4.9925 2.95296875 -4.3125 3.29296875 C-4.3125 2.30296875 -4.3125 1.31296875 -4.3125 0.29296875 C-2.3125 -0.70703125 -2.3125 -0.70703125 0 0 Z " fill="#8898EF" transform="translate(162.3125,46.70703125)"/>
<path d="M0 0 C0.66 0 1.32 0 2 0 C2 0.99 2 1.98 2 3 C2.66 3.33 3.32 3.66 4 4 C3.67 5.32 3.34 6.64 3 8 C2.34 8 1.68 8 1 8 C0.67 8.66 0.34 9.32 0 10 C-0.66 10.66 -1.32 11.32 -2 12 C-2.45811675 13.97235333 -2.45811675 13.97235333 -2.625 16.125 C-2.74875 17.40375 -2.8725 18.6825 -3 20 C-1.68 19.67 -0.36 19.34 1 19 C2 21 2 21 1.0625 24.125 C0.711875 25.07375 0.36125 26.0225 0 27 C-0.33 25.68 -0.66 24.36 -1 23 C-1.99 23 -2.98 23 -4 23 C-4 16.4 -4 9.8 -4 3 C-2.68 3 -1.36 3 0 3 C0 2.01 0 1.02 0 0 Z " fill="#B39D7C" transform="translate(258,34)"/>
<path d="M0 0 C1.12979484 3.32204574 0.86631927 5.02811771 -0.4375 8.25 C-2.225883 13.30052607 -3.36204826 17.89853945 -1.09765625 23.0546875 C-0.14177679 24.74873722 0.92103896 26.38155844 2 28 C-0.31 28 -2.62 28 -5 28 C-7.1968013 24.26129288 -6.9144157 22.06989574 -5.84765625 17.859375 C-4.06646896 11.85094597 -2.04458887 5.9230647 0 0 Z " fill="#A89B87" transform="translate(218,17)"/>
<path d="M0 0 C6.93 0 13.86 0 21 0 C20.67 6.6 20.34 13.2 20 20 C19.67 20 19.34 20 19 20 C19 13.73 19 7.46 19 1 C13.39 1 7.78 1 2 1 C2.33 1.66 2.66 2.32 3 3 C5.8159849 3.46898963 5.8159849 3.46898963 9.0625 3.625 C10.71958984 3.73714844 10.71958984 3.73714844 12.41015625 3.8515625 C13.26480469 3.90054688 14.11945313 3.94953125 15 4 C15 4.33 15 4.66 15 5 C10.38 5 5.76 5 1 5 C1 9.29 1 13.58 1 18 C0.67 18 0.34 18 0 18 C0 12.06 0 6.12 0 0 Z " fill="#152629" transform="translate(126,33)"/>
<path d="M0 0 C1.875 0.75 1.875 0.75 2.875 1.75 C3.16886153 5.47224599 3.02309171 6.52786243 0.875 9.75 C1.535 9.75 2.195 9.75 2.875 9.75 C2.875 10.41 2.875 11.07 2.875 11.75 C0.235 11.75 -2.405 11.75 -5.125 11.75 C-4.795 10.76 -4.465 9.77 -4.125 8.75 C-4.33125 7.76 -4.5375 6.77 -4.75 5.75 C-5.125 2.75 -5.125 2.75 -3.9375 0.8125 C-2.125 -0.25 -2.125 -0.25 0 0 Z M-2.125 2.75 C-1.795 4.07 -1.465 5.39 -1.125 6.75 C-0.465 6.42 0.195 6.09 0.875 5.75 C0.875 4.76 0.875 3.77 0.875 2.75 C-0.115 2.75 -1.105 2.75 -2.125 2.75 Z " fill="#0D0908" transform="translate(196.125,76.25)"/>
<path d="M0 0 C16.5 0 33 0 50 0 C50 0.33 50 0.66 50 1 C48.84064941 1.02505615 47.68129883 1.0501123 46.48681641 1.07592773 C42.14427523 1.17081324 37.80186417 1.2708285 33.45947266 1.37231445 C31.58775905 1.41535903 29.71601381 1.45705238 27.84423828 1.49731445 C25.1382498 1.5557638 22.43241612 1.61923401 19.7265625 1.68359375 C18.49155502 1.70866249 18.49155502 1.70866249 17.2315979 1.73423767 C11.45094407 1.87834472 5.74557686 2.35361667 0 3 C0 2.01 0 1.02 0 0 Z " fill="#A69F85" transform="translate(222,9)"/>
<path d="M0 0 C2.375 -0.1875 2.375 -0.1875 5 0 C5.66 0.99 6.32 1.98 7 3 C9.05003955 4.19232613 9.05003955 4.19232613 11 5 C10.67 5.66 10.34 6.32 10 7 C10.99 7.33 11.98 7.66 13 8 C5.79240611 8.61081304 5.79240611 8.61081304 2 5.6875 C0 3 0 3 0 0 Z " fill="#070B20" transform="translate(159,53)"/>
<path d="M0 0 C0.99435406 3.09354597 0.87840996 4.90279155 0 8 C1.17369141 8.18175781 1.17369141 8.18175781 2.37109375 8.3671875 C3.38300781 8.53476563 4.39492187 8.70234375 5.4375 8.875 C6.95150391 9.11863281 6.95150391 9.11863281 8.49609375 9.3671875 C9.32238281 9.57601562 10.14867187 9.78484375 11 10 C11.33 10.66 11.66 11.32 12 12 C10.68 12.33 9.36 12.66 8 13 C8 12.34 8 11.68 8 11 C5.69 11 3.38 11 1 11 C1 14.63 1 18.26 1 22 C0.67 22 0.34 22 0 22 C0 18.7 0 15.4 0 12 C-0.66 12 -1.32 12 -2 12 C-1.85831863 10.56208484 -1.71148957 9.1246763 -1.5625 7.6875 C-1.48128906 6.88699219 -1.40007812 6.08648437 -1.31640625 5.26171875 C-1 3 -1 3 0 0 Z " fill="#8090D2" transform="translate(142,66)"/>
<path d="M0 0 C0.33 0 0.66 0 1 0 C1 8.25 1 16.5 1 25 C-0.65 24.67 -2.3 24.34 -4 24 C-4 16.74 -4 9.48 -4 2 C-3.67 2 -3.34 2 -3 2 C-2.67 8.27 -2.34 14.54 -2 21 C-1.34 21.33 -0.68 21.66 0 22 C0 14.74 0 7.48 0 0 Z " fill="#1B1F41" transform="translate(197,37)"/>
<path d="M0 0 C5.28 0 10.56 0 16 0 C16.33 1.65 16.66 3.3 17 5 C17.66 5 18.32 5 19 5 C18.67 6.65 18.34 8.3 18 10 C17.34 9.34 16.68 8.68 16 8 C13.42938689 7.35232207 13.42938689 7.35232207 11 7 C11 6.67 11 6.34 11 6 C12.65 6 14.3 6 16 6 C16 4.68 16 3.36 16 2 C10.72 2 5.44 2 0 2 C0 1.34 0 0.68 0 0 Z " fill="#8D9BDF" transform="translate(187,31)"/>
<path d="M0 0 C2.31 0 4.62 0 7 0 C7 0.66 7 1.32 7 2 C5.35 2 3.7 2 2 2 C2 2.66 2 3.32 2 4 C3.32 4 4.64 4 6 4 C6 4.66 6 5.32 6 6 C4.68 6 3.36 6 2 6 C2 6.99 2 7.98 2 9 C3.65 9 5.3 9 7 9 C7 9.66 7 10.32 7 11 C4.69 11 2.38 11 0 11 C0 7.37 0 3.74 0 0 Z " fill="#0F143C" transform="translate(143,77)"/>
<path d="M0 0 C1.98 0 3.96 0 6 0 C6.33 1.65 6.66 3.3 7 5 C5.35 5.33 3.7 5.66 2 6 C2 7.65 2 9.3 2 11 C1.34 11 0.68 11 0 11 C0 7.37 0 3.74 0 0 Z " fill="#1A2041" transform="translate(176,77)"/>
<path d="M0 0 C2 1 4 2 6 3 C6.33 2.01 6.66 1.02 7 0 C7.66 0 8.32 0 9 0 C8.649375 0.5775 8.29875 1.155 7.9375 1.75 C6.8275551 4.41386776 7.05410055 5.33428337 8 8 C8.33 8.99 8.66 9.98 9 11 C8.01 10.67 7.02 10.34 6 10 C5.67 9.34 5.34 8.68 5 8 C4.01 8.99 3.02 9.98 2 11 C1.34 10.67 0.68 10.34 0 10 C0.66 9.01 1.32 8.02 2 7 C1.74276031 4.97080157 1.74276031 4.97080157 1 3 C0.67 2.01 0.34 1.02 0 0 Z " fill="#0B123A" transform="translate(158,77)"/>
<path d="M0 0 C0.33 0.99 0.66 1.98 1 3 C1.66 3 2.32 3 3 3 C3 4.65 3 6.3 3 8 C2.67 7.01 2.34 6.02 2 5 C1.34 5 0.68 5 0 5 C-0.2165625 6.546875 -0.2165625 6.546875 -0.4375 8.125 C-0.91660457 11.42549813 -1.43875083 14.71268341 -2 18 C-2.99 18 -3.98 18 -5 18 C-3.75971762 11.82777121 -2.10396411 5.93317878 0 0 Z " fill="#90A1E5" transform="translate(139,75)"/>
<path d="M0 0 C2.29996485 1.72497364 3.81771456 3.04635934 4.37109375 5.94140625 C4.47137052 9.14436433 4.4571039 11.39052814 2.5 14 C2.005 14.33 1.51 14.66 1 15 C1 14.01 1 13.02 1 12 C0.34 11.67 -0.32 11.34 -1 11 C-0.34 10.67 0.32 10.34 1 10 C0.84402344 9.44570313 0.68804687 8.89140625 0.52734375 8.3203125 C0.33269531 7.59585938 0.13804688 6.87140625 -0.0625 6.125 C-0.35833984 5.04605469 -0.35833984 5.04605469 -0.66015625 3.9453125 C-1 2 -1 2 0 0 Z " fill="#72B3B5" transform="translate(100,39)"/>
<path d="M0 0 C0.99 0.33 1.98 0.66 3 1 C2.34 1 1.68 1 1 1 C1 6.28 1 11.56 1 17 C2.32 16.67 3.64 16.34 5 16 C6 18 6 18 5.0625 21.125 C4.711875 22.07375 4.36125 23.0225 4 24 C3.67 22.68 3.34 21.36 3 20 C2.01 20 1.02 20 0 20 C0 13.4 0 6.8 0 0 Z " fill="#A4937C" transform="translate(254,37)"/>
<path d="M0 0 C2.77333918 2.21867135 3.86873442 3.60620325 5 7 C2.69 7 0.38 7 -2 7 C-2.66 5.02 -3.32 3.04 -4 1 C-2.25 0.25 -2.25 0.25 0 0 Z " fill="#A29173" transform="translate(215,38)"/>
<path d="M0 0 C2.41385269 0.56796534 3.79339233 0.24944532 6.125 -0.5 C6.455 1.15 6.785 2.8 7.125 4.5 C6.135 4.5 5.145 4.5 4.125 4.5 C4.785 3.51 5.445 2.52 6.125 1.5 C5.135 2.49 4.145 3.48 3.125 4.5 C0.65 3.51 0.65 3.51 -1.875 2.5 C-1.875 3.16 -1.875 3.82 -1.875 4.5 C-2.865 4.17 -3.855 3.84 -4.875 3.5 C-4.545 2.51 -4.215 1.52 -3.875 0.5 C-1.875 -0.5 -1.875 -0.5 0 0 Z " fill="#808FD4" transform="translate(160.875,75.5)"/>
<path d="M0 0 C0.99 0.33 1.98 0.66 3 1 C2.01 2.485 2.01 2.485 1 4 C0.71052049 6.3199715 0.62343999 8.60568395 0.5390625 10.94140625 C0 13 0 13 -2.0390625 14.27734375 C-2.68617188 14.51582031 -3.33328125 14.75429688 -4 15 C-2.9318153 9.88634986 -1.76892524 4.92772031 0 0 Z " fill="#8B9AE0" transform="translate(153,33)"/>
<path d="M0 0 C0.33 0 0.66 0 1 0 C1.76681614 9.57668161 1.76681614 9.57668161 -0.11328125 13.06640625 C-1.5 14.6875 -1.5 14.6875 -4 17 C-5 15 -5 15 -4.00390625 11.5234375 C-3.53099953 10.13802064 -3.05018356 8.75528453 -2.5625 7.375 C-2.31951172 6.66859375 -2.07652344 5.9621875 -1.82617188 5.234375 C-1.22412795 3.48726713 -0.61291983 1.74332214 0 0 Z " fill="#84BEC1" transform="translate(77,82)"/>
<path d="M0 0 C6.39559286 0.60335782 6.39559286 0.60335782 9 2.3125 C10 4 10 4 9.6875 6.1875 C9.3471875 7.0846875 9.3471875 7.0846875 9 8 C7.35 8.33 5.7 8.66 4 9 C3.67 8.34 3.34 7.68 3 7 C4.32 7 5.64 7 7 7 C6.67 5.35 6.34 3.7 6 2 C4.02 2 2.04 2 0 2 C0 1.34 0 0.68 0 0 Z " fill="#7985BF" transform="translate(162,48)"/>
<path d="M0 0 C1.98 0 3.96 0 6 0 C6.33 1.65 6.66 3.3 7 5 C5.68 5.33 4.36 5.66 3 6 C0 2.25 0 2.25 0 0 Z " fill="#A6987D" transform="translate(222,38)"/>
<path d="M0 0 C1.37478516 0.01740234 1.37478516 0.01740234 2.77734375 0.03515625 C3.69644531 0.04417969 4.61554688 0.05320312 5.5625 0.0625 C6.27277344 0.07410156 6.98304687 0.08570313 7.71484375 0.09765625 C7.71484375 0.42765625 7.71484375 0.75765625 7.71484375 1.09765625 C5.40484375 1.09765625 3.09484375 1.09765625 0.71484375 1.09765625 C0.46734375 1.84015625 0.21984375 2.58265625 -0.03515625 3.34765625 C-1.37662926 6.29889687 -2.89421151 7.94580599 -5.28515625 10.09765625 C-4.97717299 8.61754254 -4.66363825 7.138583 -4.34765625 5.66015625 C-4.17363281 4.83644531 -3.99960938 4.01273438 -3.8203125 3.1640625 C-3.08291459 0.31673773 -2.98090927 0.12738928 0 0 Z " fill="#86BDBE" transform="translate(104.28515625,8.90234375)"/>
<path d="M0 0 C0.33 0 0.66 0 1 0 C1 2.97 1 5.94 1 9 C0.34 9 -0.32 9 -1 9 C-1.28875 10.134375 -1.5775 11.26875 -1.875 12.4375 C-2.24625 13.613125 -2.6175 14.78875 -3 16 C-3.66 16.33 -4.32 16.66 -5 17 C-1.92482916 5.47835991 -1.92482916 5.47835991 0 0 Z " fill="#8892D7" transform="translate(148,48)"/>
<path d="M0 0 C0.33 0 0.66 0 1 0 C1 2.64 1 5.28 1 8 C3.97 8 6.94 8 10 8 C10 8.66 10 9.32 10 10 C6.37 10 2.74 10 -1 10 C-1.125 2.25 -1.125 2.25 0 0 Z " fill="#73A8AD" transform="translate(87,53)"/>
<path d="M0 0 C1.15957207 3.47871621 0.77456651 4.34219645 -0.4375 7.6875 C-0.86869141 8.89986328 -0.86869141 8.89986328 -1.30859375 10.13671875 C-1.53675781 10.75160156 -1.76492187 11.36648437 -2 12 C-2.33 12 -2.66 12 -3 12 C-3.33 8.7 -3.66 5.4 -4 2 C-2.68 1.34 -1.36 0.68 0 0 Z " fill="#7EBEC5" transform="translate(127,89)"/>
<path d="M0 0 C1.32 0.33 2.64 0.66 4 1 C5.25 3.5625 5.25 3.5625 6 6 C4.35 5.67 2.7 5.34 1 5 C1 7.31 1 9.62 1 12 C0.67 12 0.34 12 0 12 C0 8.04 0 4.08 0 0 Z " fill="#9C8D76" transform="translate(220,49)"/>
<path d="M0 0 C0.33 0.66 0.66 1.32 1 2 C3.02463255 2.65213292 3.02463255 2.65213292 5 3 C3.35 3.33 1.7 3.66 0 4 C0 5.65 0 7.3 0 9 C-0.66 9 -1.32 9 -2 9 C-2 7.35 -2 5.7 -2 4 C-2.66 3.67 -3.32 3.34 -4 3 C-2.68 2.01 -1.36 1.02 0 0 Z M-6 2 C-5.01 3.485 -5.01 3.485 -4 5 C-4.66 6.32 -5.32 7.64 -6 9 C-6 6.69 -6 4.38 -6 2 Z " fill="#171D34" transform="translate(165,35)"/>
<path d="M0 0 C2.8125 0.125 2.8125 0.125 6 1 C7.875 4.0625 7.875 4.0625 9 7 C8.01 7.495 8.01 7.495 7 8 C6.5875 7.54625 6.175 7.0925 5.75 6.625 C3.93591905 4.94049626 2.24714373 4.00734029 0 3 C0 2.01 0 1.02 0 0 Z " fill="#A99778" transform="translate(221,54)"/>
<path d="M0 0 C1.25955231 3.77865693 0.48087189 5.03411786 -0.9375 8.6875 C-1.31777344 9.68136719 -1.69804687 10.67523438 -2.08984375 11.69921875 C-2.39019531 12.45847656 -2.69054687 13.21773437 -3 14 C-3.33 14 -3.66 14 -4 14 C-4.49940808 7.88225104 -3.24900602 4.97504047 0 0 Z " fill="#B0A18A" transform="translate(253,70)"/>
<path d="M0 0 C0.639375 0.474375 1.27875 0.94875 1.9375 1.4375 C5.92181519 3.47031387 9.58494074 3.7210529 14 4 C13.34 5.32 12.68 6.64 12 8 C12 7.01 12 6.02 12 5 C8.7 5.33 5.4 5.66 2 6 C0 3 0 3 0 0 Z " fill="#73AAAB" transform="translate(124,57)"/>
<path d="M0 0 C0.66 0.33 1.32 0.66 2 1 C2 2.65 2 4.3 2 6 C1.01 6.33 0.02 6.66 -1 7 C-1.66 6.67 -2.32 6.34 -3 6 C-3 4.35 -3 2.7 -3 1 C-2.01 0.67 -1.02 0.34 0 0 Z " fill="#899AEC" transform="translate(202,38)"/>
<path d="M0 0 C0.93065133 2.60582371 1.14917407 3.64198224 0.0625 6.25 C-0.4634375 7.11625 -0.4634375 7.11625 -1 8 C-2.32 8 -3.64 8 -5 8 C-4.34 6.35 -3.68 4.7 -3 3 C-2.34 3 -1.68 3 -1 3 C-0.67 2.01 -0.34 1.02 0 0 Z " fill="#00020A" transform="translate(174,52)"/>
<path d="M0 0 C0.66 1.32 1.32 2.64 2 4 C1.01 5.485 1.01 5.485 0 7 C-0.39387788 9.32387947 -0.73486085 11.65793749 -1 14 C-1.99 14 -2.98 14 -4 14 C-3.52188823 12.22888156 -3.0424722 10.45811517 -2.5625 8.6875 C-2.29566406 7.70136719 -2.02882813 6.71523438 -1.75390625 5.69921875 C-1.21920575 3.78482474 -0.62855462 1.88566385 0 0 Z " fill="#84B7BB" transform="translate(98,19)"/>
<path d="M0 0 C1.76462683 3.08809695 2 4.23312136 2 8 C0.68 7.67 -0.64 7.34 -2 7 C-1.01 7 -0.02 7 1 7 C1 6.34 1 5.68 1 5 C-0.65 5 -2.3 5 -4 5 C-4 4.01 -4 3.02 -4 2 C-2.68 2 -1.36 2 0 2 C0 1.34 0 0.68 0 0 Z " fill="#808CD0" transform="translate(149,81)"/>
<path d="M0 0 C1.28497537 3.85492611 0.4052209 5.40346836 -0.9375 9.1875 C-1.31777344 10.27417969 -1.69804687 11.36085938 -2.08984375 12.48046875 C-2.39019531 13.31191406 -2.69054687 14.14335938 -3 15 C-3.33 15 -3.66 15 -4 15 C-3.67 11.37 -3.34 7.74 -3 4 C-2.34 4 -1.68 4 -1 4 C-0.67 2.68 -0.34 1.36 0 0 Z " fill="#909BDB" transform="translate(186,92)"/>
<path d="M0 0 C2 3 2 3 1.5390625 5.48046875 C1.23742187 6.37378906 0.93578125 7.26710938 0.625 8.1875 C0.32851562 9.08855469 0.03203125 9.98960938 -0.2734375 10.91796875 C-0.63308594 11.94857422 -0.63308594 11.94857422 -1 13 C-1.66 12.67 -2.32 12.34 -3 12 C-2.67 9.36 -2.34 6.72 -2 4 C-1.34 4 -0.68 4 0 4 C0 2.68 0 1.36 0 0 Z " fill="#8391D1" transform="translate(191,73)"/>
<path d="M0 0 C2.0625 0.25 2.0625 0.25 4 1 C4.33 1.66 4.66 2.32 5 3 C4.01 4.485 4.01 4.485 3 6 C3 5.01 3 4.02 3 3 C1.68 3 0.36 3 -1 3 C-1.66 4.32 -2.32 5.64 -3 7 C-2.25 2.25 -2.25 2.25 0 0 Z " fill="#15161E" transform="translate(194,76)"/>
<path d="M0 0 C0.98120464 3.05263664 0.98120464 4.94736336 0 8 C-1.32 7.67 -2.64 7.34 -4 7 C-3.39816251 4.97954558 -2.72693904 2.97888961 -2 1 C-1.34 0.67 -0.68 0.34 0 0 Z " fill="#B7A877" transform="translate(212,40)"/>
<path d="M0 0 C1.32 1.32 2.64 2.64 4 4 C3.01 5.485 3.01 5.485 2 7 C1.34 7 0.68 7 0 7 C-0.33 7.99 -0.66 8.98 -1 10 C-2.27351308 7.45297384 -1.80191925 6.5717055 -1.0625 3.875 C-0.86785156 3.15054688 -0.67320312 2.42609375 -0.47265625 1.6796875 C-0.31667969 1.12539063 -0.16070312 0.57109375 0 0 Z " fill="#A79977" transform="translate(234,38)"/>
<path d="M0 0 C1.65 0 3.3 0 5 0 C5.33 1.32 5.66 2.64 6 4 C4.02 4 2.04 4 0 4 C0 2.68 0 1.36 0 0 Z " fill="#8999F5" transform="translate(166,39)"/>
<path d="M0 0 C0.33 0.99 0.66 1.98 1 3 C-1.86177057 4.43088528 -3.93375773 3.59991697 -7 3 C-7 2.34 -7 1.68 -7 1 C-4 0 -4 0 0 0 Z " fill="#8494DB" transform="translate(183,74)"/>
<path d="M0 0 C1.65 1.65 3.3 3.3 5 5 C2.36 5 -0.28 5 -3 5 C-2.01 3.35 -1.02 1.7 0 0 Z " fill="#8693D9" transform="translate(162,84)"/>
<path d="M0 0 C2.31 0 4.62 0 7 0 C7.33 1.32 7.66 2.64 8 4 C7.01 4 6.02 4 5 4 C5 3.34 5 2.68 5 2 C3.35 2 1.7 2 0 2 C0 1.34 0 0.68 0 0 Z " fill="#8C9AE1" transform="translate(145,79)"/>
<path d="M0 0 C0.66 0 1.32 0 2 0 C2.625 1.875 2.625 1.875 3 4 C1 6 1 6 -2.125 6.125 C-3.548125 6.063125 -3.548125 6.063125 -5 6 C-4.360625 5.7525 -3.72125 5.505 -3.0625 5.25 C-0.81258459 4.18437567 -0.81258459 4.18437567 -0.25 1.875 C-0.1675 1.25625 -0.085 0.6375 0 0 Z " fill="#8190D5" transform="translate(183,78)"/>
<path d="M0 0 C1 2 1 2 0.44140625 4.1640625 C0.15136719 4.97617188 -0.13867188 5.78828125 -0.4375 6.625 C-0.72496094 7.44226563 -1.01242188 8.25953125 -1.30859375 9.1015625 C-1.53675781 9.72804688 -1.76492187 10.35453125 -2 11 C-4 7.25 -4 7.25 -4 5 C-3.34 4.67 -2.68 4.34 -2 4 C-0.86649466 1.98330173 -0.86649466 1.98330173 0 0 Z " fill="#80BAC0" transform="translate(134,69)"/>
<path d="M0 0 C2 4 2 4 1.125 6.75 C0.75375 7.4925 0.3825 8.235 0 9 C-0.66 9 -1.32 9 -2 9 C-1.34 6.03 -0.68 3.06 0 0 Z " fill="#87C0C4" transform="translate(83,64)"/>
<path d="M0 0 C0.66 0.66 1.32 1.32 2 2 C1.34 3.98 0.68 5.96 0 8 C-0.33 6.68 -0.66 5.36 -1 4 C-1.99 4 -2.98 4 -4 4 C-4 3.34 -4 2.68 -4 2 C-2.68 2 -1.36 2 0 2 C0 1.34 0 0.68 0 0 Z " fill="#8A7E6C" transform="translate(258,53)"/>
<path d="M0 0 C0.33 0.99 0.66 1.98 1 3 C1.66 3 2.32 3 3 3 C2.67 4.65 2.34 6.3 2 8 C1.34 7.34 0.68 6.68 0 6 C-2.57061311 5.35232207 -2.57061311 5.35232207 -5 5 C-5 4.67 -5 4.34 -5 4 C-3.35 4 -1.7 4 0 4 C0 2.68 0 1.36 0 0 Z " fill="#7281B4" transform="translate(203,33)"/>
<path d="M0 0 C0.33 0.66 0.66 1.32 1 2 C4.02934491 2.65772428 4.02934491 2.65772428 7 3 C7 3.66 7 4.32 7 5 C6.01 5 5.02 5 4 5 C3.67 5.66 3.34 6.32 3 7 C0 3.375 0 3.375 0 0 Z " fill="#7A89D0" transform="translate(164,81)"/>
<path d="M0 0 C1.2077558 3.62326739 0.54311128 4.64146369 -1 8 C-1.33 8 -1.66 8 -2 8 C-2.33 5.69 -2.66 3.38 -3 1 C-2.01 0.67 -1.02 0.34 0 0 Z " fill="#AE9E85" transform="translate(261,46)"/>
<path d="" fill="#FFFFFF" transform="translate(0,0)"/>
<path d="" fill="#FFFFFF" transform="translate(0,0)"/>
<path d="" fill="#FFFFFF" transform="translate(0,0)"/>
<path d="" fill="#FFFFFF" transform="translate(0,0)"/>
<path d="" fill="#FFFFFF" transform="translate(0,0)"/>
<path d="" fill="#FFFFFF" transform="translate(0,0)"/>
<path d="" fill="#FFFFFF" transform="translate(0,0)"/>
<path d="" fill="#FFFFFF" transform="translate(0,0)"/>
<path d="" fill="#FFFFFF" transform="translate(0,0)"/>
<path d="" fill="#FFFFFF" transform="translate(0,0)"/>
<path d="" fill="#FFFFFF" transform="translate(0,0)"/>
<path d="" fill="#FFFFFF" transform="translate(0,0)"/>
<path d="" fill="#FFFFFF" transform="translate(0,0)"/>
<path d="" fill="#FFFFFF" transform="translate(0,0)"/>
<path d="" fill="#FFFFFF" transform="translate(0,0)"/>
<path d="" fill="#FFFFFF" transform="translate(0,0)"/>
<path d="" fill="#FFFFFF" transform="translate(0,0)"/>
<path d="" fill="#FFFFFF" transform="translate(0,0)"/>
<path d="" fill="#FFFFFF" transform="translate(0,0)"/>
<path d="" fill="#FFFFFF" transform="translate(0,0)"/>
<path d="" fill="#FFFFFF" transform="translate(0,0)"/>
<path d="" fill="#FFFFFF" transform="translate(0,0)"/>
<path d="" fill="#FFFFFF" transform="translate(0,0)"/>
<path d="" fill="#FFFFFF" transform="translate(0,0)"/>
<path d="" fill="#FFFFFF" transform="translate(0,0)"/>
<path d="" fill="#FFFFFF" transform="translate(0,0)"/>
<path d="" fill="#FFFFFF" transform="translate(0,0)"/>
<path d="" fill="#FFFFFF" transform="translate(0,0)"/>
<path d="" fill="#FFFFFF" transform="translate(0,0)"/>
<path d="" fill="#FFFFFF" transform="translate(0,0)"/>
<path d="" fill="#FFFFFF" transform="translate(0,0)"/>
<path d="" fill="#FFFFFF" transform="translate(0,0)"/>
<path d="" fill="#FFFFFF" transform="translate(0,0)"/>
<path d="" fill="#FFFFFF" transform="translate(0,0)"/>
<path d="" fill="#FFFFFF" transform="translate(0,0)"/>
<path d="" fill="#FFFFFF" transform="translate(0,0)"/>
<path d="" fill="#FFFFFF" transform="translate(0,0)"/>
</svg>
