<?xml version="1.0" encoding="UTF-8"?>
<svg version="1.1" xmlns="http://www.w3.org/2000/svg" width="343" height="125">
<path d="M0 0 C113.19 0 226.38 0 343 0 C343 41.25 343 82.5 343 125 C229.81 125 116.62 125 0 125 C0 83.75 0 42.5 0 0 Z " fill="#FDFEFE" transform="translate(0,0)"/>
<path d="M0 0 C17.16 0 34.32 0 52 0 C46.25 17.625 46.25 17.625 44.46191406 23.09228516 C41.76104385 31.38147899 39.16380583 39.67090017 36.86279297 48.08154297 C35.76864343 51.78257963 34.37340457 55.31089303 32.8828125 58.8671875 C31.77898852 61.53394809 30.86883149 64.24870028 30 67 C31.98 67 33.96 67 36 67 C39.21188946 59.29840058 41.9294035 51.47551212 44.546875 43.5546875 C45.1709726 41.67814987 45.1709726 41.67814987 45.80767822 39.76370239 C46.9019077 36.47345865 47.99252525 33.18202922 49.08233643 29.89031982 C50.19980233 26.51728693 51.3207278 23.14540412 52.44140625 19.7734375 C54.6313028 13.18350851 56.81550607 6.59173167 59 0 C76.16 0 93.32 0 111 0 C109.87500851 7.87494043 109.87500851 7.87494043 108.74072266 11.23193359 C108.49021149 11.98316498 108.23970032 12.73439636 107.9815979 13.50839233 C107.57691788 14.69146469 107.57691788 14.69146469 107.1640625 15.8984375 C106.88404388 16.73283356 106.60402527 17.56722961 106.31552124 18.4269104 C105.42433815 21.07821958 104.5248501 23.72662145 103.625 26.375 C103.02808773 28.14564529 102.43172844 29.91647709 101.8359375 31.6875 C100.73340586 34.96259668 99.62757235 38.23653718 98.51806641 41.50927734 C96.99700805 46.00121436 95.49556493 50.49951877 94 55 C93.58843155 56.23837616 93.58843155 56.23837616 93.16854858 57.50177002 C92.57851949 59.27758895 91.98859779 61.05344357 91.39877319 62.82933044 C90.07359121 66.81830889 88.74678256 70.80674569 87.41992188 74.79516602 C86.71919823 76.90241228 86.01900904 79.00983633 85.31933594 81.11743164 C84.30543559 84.17120292 83.28962984 87.22433452 82.2734375 90.27734375 C81.95990326 91.22310776 81.64636902 92.16887177 81.32333374 93.14329529 C81.03278107 94.01502884 80.74222839 94.88676239 80.44287109 95.78491211 C80.18766693 96.55274521 79.93246277 97.32057831 79.66952515 98.11167908 C79 100 79 100 78 102 C60.84 102 43.68 102 26 102 C27.31032944 96.10351752 28.66473582 90.59605327 30.625 84.9375 C30.85445313 84.26267578 31.08390625 83.58785156 31.3203125 82.89257812 C31.87598964 81.26027651 32.4373672 79.62991717 33 78 C32.01 78 31.02 78 30 78 C30 76.68 30 75.36 30 74 C29.01 73.505 29.01 73.505 28 73 C24.7 82.57 21.4 92.14 18 102 C0.84 102 -16.32 102 -34 102 C-32.03582606 94.79802888 -30.00869994 87.74799782 -27.62890625 80.69140625 C-27.3102359 79.73813446 -26.99156555 78.78486267 -26.66323853 77.80270386 C-25.63256169 74.72165493 -24.59764249 71.64205115 -23.5625 68.5625 C-22.84583675 66.42400107 -22.12944946 64.28540964 -21.41333008 62.14672852 C-20.32740989 58.90390949 -19.24122164 55.66118266 -18.15379333 52.41886902 C-15.88270757 45.64584552 -13.62613422 38.86820386 -11.3828125 32.0859375 C-10.83394821 30.4289401 -10.28504007 28.77195722 -9.73608398 27.11499023 C-8.9697328 24.80170364 -8.20419272 22.48816966 -7.44168091 20.1736145 C-6.74902956 18.07185157 -6.05264716 15.97135855 -5.35546875 13.87109375 C-4.97028076 12.70505615 -4.58509277 11.53901855 -4.18823242 10.33764648 C-2.94127385 6.8350431 -1.46457141 3.41733328 0 0 Z " fill="#B39C7B" transform="translate(162,10)"/>
<path d="M0 0 C0.9215538 0.00222061 1.8431076 0.00444122 2.79258728 0.00672913 C3.83359085 0.00680466 4.87459442 0.00688019 5.94714355 0.00695801 C7.07941879 0.01211929 8.21169403 0.01728058 9.37828064 0.02259827 C10.53106003 0.02401321 11.68383942 0.02542816 12.87155151 0.02688599 C16.57043503 0.03250446 20.26925903 0.0450601 23.96812439 0.05775452 C26.46877456 0.06276714 28.96942567 0.06733045 31.47007751 0.07142639 C37.61528027 0.0824799 43.76044808 0.099236 49.90562439 0.12025452 C49.43100312 1.89091448 48.95418232 3.66098497 48.47642517 5.43080139 C48.21113007 6.41657166 47.94583496 7.40234192 47.67250061 8.41798401 C46.87349721 11.23346225 45.87147696 13.90600718 44.78062439 16.62025452 C42.61623554 22.82863307 42.39985854 28.84064526 42.40904236 35.35853577 C42.32435488 41.08388672 41.30165673 44.45071005 37.90562439 49.12025452 C37.23475296 49.43414124 36.56388153 49.74802795 35.87268066 50.07142639 C33.38826513 51.39610882 33.09043502 52.31749067 32.213974 54.95228577 C31.94366867 55.74070862 31.67336334 56.52913147 31.39486694 57.34144592 C31.11869034 58.19657776 30.84251373 59.05170959 30.55796814 59.93275452 C30.25999832 60.81624573 29.9620285 61.69973694 29.6550293 62.61000061 C28.70372409 65.44229177 27.77342311 68.28100302 26.84312439 71.12025452 C26.21359364 73.00220989 25.58274857 74.88372616 24.95054626 76.76478577 C22.13461784 85.18203293 19.45704485 93.61551965 16.90562439 102.12025452 C-0.58437561 102.12025452 -18.07437561 102.12025452 -36.09437561 102.12025452 C-34.42375061 96.77837952 -32.75312561 91.43650452 -31.03187561 85.93275452 C-30.4879718 84.18357727 -29.94406799 82.43440002 -29.38368225 80.63221741 C-25.25673777 67.39778203 -25.25673777 67.39778203 -22.84046936 60.92884827 C-18.12877157 48.26748893 -16.94791692 36.62226292 -17.09437561 23.12025452 C-14.45437561 23.12025452 -11.81437561 23.12025452 -9.09437561 23.12025452 C-8.98093811 22.12767639 -8.86750061 21.13509827 -8.75062561 20.11244202 C-8.15965852 15.98191498 -6.95486615 12.17901575 -5.59437561 8.24525452 C-5.36878967 7.56978577 -5.14320374 6.89431702 -4.91078186 6.19837952 C-2.86310378 0.16439323 -2.86310378 0.16439323 0 0 Z " fill="#77C5CA" transform="translate(104.09437561035156,9.879745483398438)"/>
<path d="M0 0 C17.16 0 34.32 0 52 0 C46.25 17.625 46.25 17.625 44.46191406 23.09228516 C41.75732875 31.393217 39.15832421 39.69314381 36.86279297 48.11816406 C36.03369283 50.88746176 35.03041762 53.47753829 33.875 56.125 C31.56843711 61.57357376 30.76239737 67.16164121 30 73 C29.34 73 28.68 73 28 73 C24.7 82.57 21.4 92.14 18 102 C0.84 102 -16.32 102 -34 102 C-32.03582606 94.79802888 -30.00869994 87.74799782 -27.62890625 80.69140625 C-27.3102359 79.73813446 -26.99156555 78.78486267 -26.66323853 77.80270386 C-25.63256169 74.72165493 -24.59764249 71.64205115 -23.5625 68.5625 C-22.84583675 66.42400107 -22.12944946 64.28540964 -21.41333008 62.14672852 C-20.32740989 58.90390949 -19.24122164 55.66118266 -18.15379333 52.41886902 C-15.88270757 45.64584552 -13.62613422 38.86820386 -11.3828125 32.0859375 C-10.83394821 30.4289401 -10.28504007 28.77195722 -9.73608398 27.11499023 C-8.9697328 24.80170364 -8.20419272 22.48816966 -7.44168091 20.1736145 C-6.74902956 18.07185157 -6.05264716 15.97135855 -5.35546875 13.87109375 C-4.97028076 12.70505615 -4.58509277 11.53901855 -4.18823242 10.33764648 C-2.94127385 6.8350431 -1.46457141 3.41733328 0 0 Z " fill="#8699F1" transform="translate(162,10)"/>
<path d="M0 0 C7.59 0 15.18 0 23 0 C23.061875 3.361875 23.12375 6.72375 23.1875 10.1875 C23.21481201 11.23832764 23.24212402 12.28915527 23.27026367 13.37182617 C23.34938233 22.24417577 23.34938233 22.24417577 20 26 C15.98623701 28.70867441 11.67744898 28.67655958 7 28 C2.88953542 25.63866928 1.32624888 23.479774 0 19 C-0.23542509 15.72345388 -0.18815616 12.47022305 -0.125 9.1875 C-0.08375 6.155625 -0.0425 3.12375 0 0 Z " fill="#060909" transform="translate(122,33)"/>
<path d="M0 0 C12.54180602 0 12.54180602 0 18 4 C21.25896511 8.88844766 20.68726103 14.29152576 20 20 C18.4282988 23.52009113 16.06821725 25.32854916 12.8125 27.375 C10 28 10 28 0 28 C0 18.76 0 9.52 0 0 Z " fill="#030405" transform="translate(88,33)"/>
<path d="M0 0 C2.06183633 -0.08150744 4.12461349 -0.1394194 6.1875 -0.1875 C7.33605469 -0.22230469 8.48460937 -0.25710937 9.66796875 -0.29296875 C13.3044035 0.02676467 15.1105914 0.81841727 18 3 C19.40457737 5.80915474 19.24895157 7.88810534 19 11 C17.6875 13.375 17.6875 13.375 16 15 C15.01 15 14.02 15 13 15 C13.5053125 15.77085938 14.010625 16.54171875 14.53125 17.3359375 C15.1809375 18.33882812 15.830625 19.34171875 16.5 20.375 C17.1496875 21.37273438 17.799375 22.37046875 18.46875 23.3984375 C20 26 20 26 20 28 C17.7265625 28.33984375 17.7265625 28.33984375 15 28 C13.0859375 25.62890625 13.0859375 25.62890625 11.375 22.5625 C9.15707828 18.15163421 9.15707828 18.15163421 5 16 C5 19.96 5 23.92 5 28 C3.35 28 1.7 28 0 28 C0 22.39 0 16.78 0 11 C1.32 11 2.64 11 4 11 C3.34 10.113125 2.68 9.22625 2 8.3125 C-0.05889462 4.90245578 -0.20705258 3.79812072 0 0 Z " fill="#0C0B08" transform="translate(215,33)"/>
<path d="M0 0 C5 0 5 0 6.5456543 1.3293457 C6.96758057 1.93866943 7.38950684 2.54799316 7.82421875 3.17578125 C8.29537109 3.83900391 8.76652344 4.50222656 9.25195312 5.18554688 C9.72568359 5.88744141 10.19941406 6.58933594 10.6875 7.3125 C11.17283203 8.00279297 11.65816406 8.69308594 12.15820312 9.40429688 C14.14666693 12.24300037 16.07747871 15.11621806 18 18 C18.33 12.06 18.66 6.12 19 0 C20.32 0 21.64 0 23 0 C23 9.24 23 18.48 23 28 C18 28 18 28 16.33081055 26.34765625 C15.85426025 25.59355469 15.37770996 24.83945312 14.88671875 24.0625 C14.36142578 23.25039063 13.83613281 22.43828125 13.29492188 21.6015625 C12.76447266 20.74304688 12.23402344 19.88453125 11.6875 19 C11.13771484 18.14148438 10.58792969 17.28296875 10.02148438 16.3984375 C8.66523322 14.27560961 7.33053414 12.13904052 6 10 C5.67 15.94 5.34 21.88 5 28 C3.35 28 1.7 28 0 28 C0 18.76 0 9.52 0 0 Z " fill="#0A0A0A" transform="translate(50,33)"/>
<path d="M0 0 C0.66 0 1.32 0 2 0 C3.42842911 3.66452852 4.85247676 7.33072569 6.27246094 10.99853516 C6.99441847 12.86060415 7.71985238 14.72132407 8.4453125 16.58203125 C8.89648438 17.74863281 9.34765625 18.91523437 9.8125 20.1171875 C10.23144531 21.19597168 10.65039062 22.27475586 11.08203125 23.38623047 C12 26 12 26 12 28 C10.35 28 8.7 28 7 28 C6.67 27.34 6.34 26.68 6 26 C2.7 26 -0.6 26 -4 26 C-4.33 26.66 -4.66 27.32 -5 28 C-6.65 28 -8.3 28 -10 28 C-7.46277869 18.38272302 -3.66846291 9.22643548 0 0 Z " fill="#101010" transform="translate(277,33)"/>
<path d="M0 0 C2.5 1.75 2.5 1.75 4 4 C4 5.32 4 6.64 4 8 C2.35 8 0.7 8 -1 8 C-1.33 7.01 -1.66 6.02 -2 5 C-3.65 5.33 -5.3 5.66 -7 6 C-6.67 7.65 -6.34 9.3 -6 11 C-4.906875 11.268125 -3.81375 11.53625 -2.6875 11.8125 C2.59018659 13.51209399 2.59018659 13.51209399 4 16 C4.75 22.75 4.75 22.75 2.5 26.5 C-0.97672923 28.58603754 -4.11142728 28.90861699 -8 28 C-11 25.6875 -11 25.6875 -13 23 C-13 22.01 -13 21.02 -13 20 C-10.625 19.8125 -10.625 19.8125 -8 20 C-7.34 20.99 -6.68 21.98 -6 23 C-4.35 22.67 -2.7 22.34 -1 22 C-1 20.35 -1 18.7 -1 17 C-1.61488281 16.90203125 -2.22976562 16.8040625 -2.86328125 16.703125 C-9.42307692 15.48951049 -9.42307692 15.48951049 -12.0625 13.25 C-13.34129749 10.18088602 -13.53845078 8.29801106 -13 5 C-9.2217441 -0.43124286 -6.19885712 -0.88555102 0 0 Z " fill="#07080C" transform="translate(172,33)"/>
<path d="M0 0 C4.62 0 9.24 0 14 0 C14.59374448 12.70613183 14.59374448 12.70613183 13.0625 16.04296875 C11.09546001 18.13909574 9.21228508 18.95340084 6.4375 19.5625 C3.11697765 18.79622561 2.06300349 17.71174673 0 15 C-0.2911521 12.26317029 -0.38322418 9.96059961 -0.25 7.25 C-0.23195313 6.55261719 -0.21390625 5.85523438 -0.1953125 5.13671875 C-0.14838554 3.42388461 -0.07664605 1.71176176 0 0 Z " fill="#74C1C5" transform="translate(127,38)"/>
<path d="M0 0 C7 1 7 1 9.9375 3.0625 C12.25523948 6.36352289 12.75669245 8.11715385 12.48046875 12.06640625 C11.61592935 15.54565017 9.86830829 16.98608141 7 19 C4.69 19.33 2.38 19.66 0 20 C0 13.4 0 6.8 0 0 Z " fill="#6DB6BA" transform="translate(92,37)"/>
<path d="M0 0 C1.65 0 3.3 0 5 0 C5 7.59 5 15.18 5 23 C8.3 23 11.6 23 15 23 C15 24.65 15 26.3 15 28 C10.05 28 5.1 28 0 28 C0 18.76 0 9.52 0 0 Z " fill="#111111" transform="translate(300,33)"/>
<path d="M0 0 C5.28 0 10.56 0 16 0 C16 1.65 16 3.3 16 5 C14.35 5 12.7 5 11 5 C11 12.59 11 20.18 11 28 C9.35 28 7.7 28 6 28 C6 20.08 6 12.16 6 4 C4.02 4 2.04 4 0 4 C0 2.68 0 1.36 0 0 Z " fill="#0A0C13" transform="translate(187,33)"/>
<path d="M0 0 C3.63 0 7.26 0 11 0 C11 1.32 11 2.64 11 4 C10.01 4 9.02 4 8 4 C8 10.6 8 17.2 8 24 C8.99 24 9.98 24 11 24 C11 25.32 11 26.64 11 28 C7.37 28 3.74 28 0 28 C0 26.68 0 25.36 0 24 C0.99 24 1.98 24 3 24 C3 17.4 3 10.8 3 4 C2.01 4 1.02 4 0 4 C0 2.68 0 1.36 0 0 Z " fill="#080705" transform="translate(246,33)"/>
<path d="M0 0 C3.3 0 6.6 0 10 0 C10 1.32 10 2.64 10 4 C9.01 4 8.02 4 7 4 C7 10.6 7 17.2 7 24 C7.99 24 8.98 24 10 24 C10 25.32 10 26.64 10 28 C6.7 28 3.4 28 0 28 C0 26.68 0 25.36 0 24 C0.99 24 1.98 24 3 24 C3 17.4 3 10.8 3 4 C2.01 4 1.02 4 0 4 C0 2.68 0 1.36 0 0 Z " fill="#000000" transform="translate(27,33)"/>
<path d="M0 0 C0.66 0.33 1.32 0.66 2 1 C-0.31 8.26 -2.62 15.52 -5 23 C-5.33 23 -5.66 23 -6 23 C-6 16.73 -6 10.46 -6 4 C-4.35 3.67 -2.7 3.34 -1 3 C-0.67 2.01 -0.34 1.02 0 0 Z " fill="#889CF3" transform="translate(204,34)"/>
<path d="M0 0 C2.5 0.125 2.5 0.125 3.5 1.125 C3.21269945 3.46444736 2.88063221 5.7989143 2.5 8.125 C0.83388095 8.167721 -0.83382885 8.16563832 -2.5 8.125 C-3.5 7.125 -3.5 7.125 -3.625 4.125 C-3.46033403 0.1730167 -3.46033403 0.1730167 0 0 Z " fill="#60605F" transform="translate(195.5,76.875)"/>
<path d="M0 0 C2.31 0 4.62 0 7 0 C7 0.66 7 1.32 7 2 C5.35 2 3.7 2 2 2 C2 2.66 2 3.32 2 4 C3.32 4 4.64 4 6 4 C6 4.66 6 5.32 6 6 C4.68 6 3.36 6 2 6 C2 6.99 2 7.98 2 9 C3.65 9 5.3 9 7 9 C7 9.66 7 10.32 7 11 C4.69 11 2.38 11 0 11 C0 7.37 0 3.74 0 0 Z " fill="#08090F" transform="translate(143,77)"/>
<path d="M0 0 C1.98 0 3.96 0 6 0 C6.33 1.65 6.66 3.3 7 5 C5.35 5.33 3.7 5.66 2 6 C2 7.65 2 9.3 2 11 C1.34 11 0.68 11 0 11 C0 7.37 0 3.74 0 0 Z " fill="#0E111B" transform="translate(176,77)"/>
<path d="M0 0 C2 1 4 2 6 3 C6.33 2.01 6.66 1.02 7 0 C7.66 0 8.32 0 9 0 C8.649375 0.5775 8.29875 1.155 7.9375 1.75 C6.82596574 4.41768223 6.9728867 5.34662399 8 8 C8.99 9.485 8.99 9.485 10 11 C8.0625 10.625 8.0625 10.625 6 10 C5.67 9.34 5.34 8.68 5 8 C4.01 8.99 3.02 9.98 2 11 C1.34 10.67 0.68 10.34 0 10 C0.66 9.01 1.32 8.02 2 7 C1.74276031 4.97080157 1.74276031 4.97080157 1 3 C0.67 2.01 0.34 1.02 0 0 Z " fill="#0F111B" transform="translate(158,77)"/>
<path d="M0 0 C0.66 0 1.32 0 2 0 C2.66 2.97 3.32 5.94 4 9 C2.02 9 0.04 9 -2 9 C-1.51421457 5.87709365 -1.0013988 3.00419641 0 0 Z " fill="#D9D9D9" transform="translate(277,45)"/>
<path d="M0 0 C1.98 0 3.96 0 6 0 C6.33 1.65 6.66 3.3 7 5 C5.68 5.33 4.36 5.66 3 6 C0 2.25 0 2.25 0 0 Z " fill="#AD9776" transform="translate(222,38)"/>
<path d="M0 0 C0.99 0 1.98 0 3 0 C3.33 0.99 3.66 1.98 4 3 C2.35 3.33 0.7 3.66 -1 4 C-1 5.65 -1 7.3 -1 9 C-1.33 9 -1.66 9 -2 9 C-2.25 3.375 -2.25 3.375 0 0 Z " fill="#2A304C" transform="translate(179,79)"/>
<path d="M0 0 C2 1 4 2 6 3 C6.33 2.01 6.66 1.02 7 0 C7.66 0 8.32 0 9 0 C8.34 1.32 7.68 2.64 7 4 C6.01 4 5.02 4 4 4 C3.67 4.66 3.34 5.32 3 6 C2.01 4.02 1.02 2.04 0 0 Z " fill="#141724" transform="translate(158,77)"/>
<path d="M0 0 C2.31 0 4.62 0 7 0 C7 0.66 7 1.32 7 2 C5.35 2 3.7 2 2 2 C2 2.66 2 3.32 2 4 C3.32 4.33 4.64 4.66 6 5 C4.35 5 2.7 5 1 5 C0.67 3.35 0.34 1.7 0 0 Z " fill="#1E2337" transform="translate(143,77)"/>
</svg>
